<svg id="Layer_1" enable-background="new 0 0 512.103 512.103" height="512" viewBox="0 0 512.103 512.103" width="512" xmlns="http://www.w3.org/2000/svg"><g><g><path d="m503.33 178.533-169.69-169.69c-5.65-5.65-13.184-8.762-21.212-8.762-8.026-.001-15.563 3.112-21.213 8.763l-84.799 84.799c-13.212-11.391-32.046-12.443-46.314-3.306-12.331-7.865-27.802-8.346-40.756-.686-12.457 7.365-19.333 20.233-19.223 34.702-8.42.66-16.704 3.55-24.002 8.611-17.246-11.959-39.998-11.801-57.051 1.283-16.469 12.637-28.645 39.616-8.758 74.059 9.316 16.136 24.598 31.742 39.023 42.417l-40.481 40.48c-5.65 5.65-8.763 13.184-8.762 21.212 0 8.028 3.111 15.562 8.762 21.212l169.69 169.69c11.127 11.607 31.296 11.606 42.424 0l102.32-102.32c2.574 1.237 5.09 2.936 8.146 5.992 3.906 3.906 10.237 3.906 14.143 0l30.483-30.483c5.65-5.65 8.762-13.183 8.762-21.211 0-4.554-1.001-8.949-2.899-12.931l121.407-121.407c11.697-11.696 11.697-30.727 0-42.424zm-289.888-7.068 28.281-28.281 42.421 42.421-28.281 28.281zm-83.916-64.599c5.855-3.461 15.523-4.677 23.495 3.295 3.906 3.905 10.236 3.905 14.143 0 8.361-8.361 19.045-6.892 25.433-1.991 24.039 19.604-15.265 58.675-32.479 66.251-2.058-.94-4.781-2.485-8.016-4.748-1.163-15.785-9.314-28.05-18.928-35.427-4.022-3.086-8.362-5.453-12.871-7.112-1.079-8.739 2.198-16.114 9.223-20.268zm-101.893 91.44c-13.398-23.207-6.919-40.11 3.612-48.192 11.17-8.405 26.794-8.278 37.805 2.906 3.725 3.874 10.418 3.873 14.143 0 12.406-12.407 28.293-10.204 37.804-2.906 10.532 8.082 17.012 24.985 3.613 48.192-12.007 20.795-35.882 40.25-48.488 45.333-12.608-5.084-36.483-24.538-48.489-45.333zm179.194 290.87c-3.684 3.847-10.455 3.847-14.139 0l-169.69-169.69c-3.847-3.682-3.847-10.456 0-14.139l43.934-43.934c2.352 1.064 4.568 1.883 6.602 2.428 1.695.454 3.48.454 5.176 0 14.388-3.855 37.894-21.44 54.131-42.188 5.725 4.184 10.753 5.934 15.015 7.416 2.083.725 3.927 1.367 5.742 2.239l-81.108 81.106c-3.873 3.724-3.873 10.419 0 14.143l56.563 56.563c3.724 3.873 10.419 3.873 14.143 0l25.615-25.616c3.905-3.905 3.905-10.237 0-14.142-3.906-3.905-10.236-3.905-14.143 0l-18.544 18.545-42.421-42.421 74.035-74.035c.872 1.815 1.514 3.659 2.238 5.742 4.5 15.79 18.694 29.955 34.44 34.44 5.038 1.753 8.679 3.02 13.891 8.232 5.213 5.213 6.479 8.853 8.232 13.892 1.374 3.948 2.977 8.555 6.533 13.764l-75.74 75.74c-3.905 3.905-3.905 10.237 0 14.143 3.906 3.905 10.237 3.905 14.143 0l75.74-75.74c5.209 3.556 9.816 5.159 13.764 6.533 2.083.725 3.927 1.367 5.742 2.239l-81.106 81.107c-3.905 3.905-3.905 10.237 0 14.143 3.906 3.905 10.237 3.905 14.143 0l81.106-81.107c.872 1.815 1.514 3.659 2.239 5.742 2.504 8.846 9.66 20.556 20.674 27.906zm155.091-126.811-24.037 24.037c-5.209-3.556-9.816-5.159-13.765-6.533-5.038-1.753-8.679-3.019-13.892-8.232-5.213-5.212-6.479-8.853-8.232-13.891-4.5-15.791-18.693-29.954-34.439-34.44-5.038-1.752-8.679-3.019-13.891-8.231-5.213-5.213-6.479-8.853-8.232-13.892-4.5-15.79-18.694-29.955-34.44-34.44-5.038-1.753-8.679-3.02-13.891-8.232-5.213-5.213-6.479-8.853-8.232-13.892-2.017-5.795-4.526-13.007-12.979-21.46-8.453-8.454-15.665-10.963-21.461-12.979-3.918-1.364-6.99-2.433-10.614-5.292 2.425-4.628 4.27-9.113 5.607-13.437 2.68 1.388 5.424 2.545 8.084 3.258 1.696.454 3.481.454 5.177 0 7.541-2.021 18.119-8.605 28.111-17.612l171.128 171.128c1.872 1.873 2.904 4.383 2.904 7.069-.001 2.688-1.033 5.198-2.906 7.071zm-63.631-106.055 28.281-28.281 42.422 42.421-28.281 28.282zm190.901-49.495-120.198 120.198-14.139-14.139 35.353-35.353c3.873-3.723 3.873-10.419 0-14.142l-56.564-56.563c-3.906-3.905-10.236-3.905-14.143 0l-35.352 35.352-14.139-14.139 35.352-35.353c3.905-3.905 3.905-10.237 0-14.143l-56.563-56.563c-3.724-3.873-10.419-3.873-14.143 0l-17.025 17.025c3.349-10.557 2.97-20.267.166-28.444l87.565-87.567c3.684-3.846 10.457-3.846 14.14 0l169.69 169.69c3.898 3.899 3.898 10.243 0 14.141z"/><path d="m378.992 114.9c0-2.652-1.054-5.196-2.929-7.071l-56.563-56.563c-3.904-3.904-10.234-3.904-14.143 0l-42.424 42.423c-3.873 3.724-3.873 10.419 0 14.143l56.563 56.563c3.906 3.905 10.237 3.905 14.143 0l42.424-42.423c1.875-1.877 2.929-4.42 2.929-7.072zm-52.424 28.281-42.421-42.421 28.281-28.281 42.421 42.421z"/><path d="m404.344 136.11c-3.906-3.905-10.236-3.905-14.143 0l-42.423 42.423c-3.905 3.905-3.905 10.237 0 14.143l56.563 56.564c3.725 3.873 10.418 3.873 14.143 0l42.423-42.423c3.905-3.905 3.905-10.237 0-14.143zm7.069 91.916-42.421-42.422 28.28-28.281 42.421 42.421z"/><path d="m186.83 326.015c4.075 3.707 10.401 3.422 14.126-.673l.005-.005c3.715-4.086 3.411-10.408-.675-14.123-4.088-3.715-10.414-3.412-14.129.675-3.714 4.086-3.413 10.411.673 14.126z"/></g></g></svg>